<svg width="345" height="233" viewBox="0 0 345 233" fill="none" xmlns="http://www.w3.org/2000/svg">
<mask id="path-1-inside-1_1014_159" fill="white">
<path fill-rule="evenodd" clip-rule="evenodd" d="M6.75 1.45349C4.963 2.23049 3.5 3.3055 3.5 3.8425C3.5 4.3805 2.713 5.60749 1.75 6.56949C0.117 8.20149 0 12.9135 0 76.8075C0 130.708 0.266 145.384 1.25 145.712C1.938 145.941 2.5 146.688 2.5 147.371C2.5 148.054 3.661 149.704 5.08 151.038L7.66 153.462L76.58 153.732C120.733 153.905 145.5 154.354 145.5 154.982C145.5 155.521 144.986 155.962 144.358 155.962C143.729 155.962 141.817 157.277 140.108 158.885C131.14 167.32 128.109 169.962 127.4 169.962C126.97 169.962 124.61 171.875 122.156 174.212C119.702 176.549 116.039 179.812 114.015 181.462C111.992 183.112 108.538 186.15 106.339 188.212C104.14 190.275 101.99 191.962 101.561 191.962C101.132 191.962 99.255 193.533 97.39 195.452C95.526 197.371 93.704 198.946 93.343 198.952C92.583 198.965 85.796 204.925 80.984 209.805C75.55 215.316 75.349 223.909 80.53 229.271C82.642 231.457 84.466 232.207 88.752 232.65C95.176 233.313 98.806 231.717 104.537 225.712C106.506 223.65 108.543 221.962 109.065 221.962C109.587 221.962 111.459 220.387 113.226 218.462C114.993 216.537 116.814 214.962 117.273 214.962C117.732 214.962 119.634 213.387 121.5 211.462C123.366 209.537 125.272 207.962 125.736 207.962C126.2 207.962 128.361 206.274 130.539 204.212C132.716 202.15 135.961 199.23 137.749 197.723C139.537 196.216 143.218 192.954 145.929 190.473C148.64 187.993 151.158 185.962 151.525 185.962C151.893 185.962 153.768 184.5 155.693 182.712C164.127 174.88 167.525 171.961 168.237 171.93C168.657 171.911 170.563 170.224 172.473 168.18L175.945 164.462L178.11 166.462C179.301 167.562 182.169 170.037 184.483 171.962C186.797 173.887 190.064 176.7 191.743 178.212C193.423 179.724 195.08 180.962 195.425 180.962C195.771 180.962 197.617 182.335 199.527 184.012C201.437 185.69 204.223 188.053 205.717 189.262C210.176 192.872 216.482 198.249 220.317 201.712C222.297 203.5 224.219 204.962 224.588 204.962C224.957 204.962 227.226 206.748 229.629 208.931C237.654 216.219 238.565 216.962 239.479 216.962C239.978 216.962 240.975 217.785 241.693 218.792C242.412 219.798 244.35 221.478 246 222.525C247.65 223.571 249.588 225.223 250.307 226.195C251.025 227.167 252.215 227.962 252.95 227.962C253.685 227.962 254.536 228.613 254.84 229.408C255.54 231.231 261.454 232.381 265.868 231.553C267.721 231.205 270.503 229.833 272.05 228.503C274.427 226.461 274.932 225.143 275.303 220.013C275.677 214.834 275.393 213.426 273.371 210.457C272.067 208.542 270.66 206.973 270.243 206.969C269.827 206.965 268.509 205.837 267.313 204.462C266.118 203.087 264.71 201.962 264.184 201.962C263.659 201.962 262.251 200.95 261.056 199.712C258.827 197.404 253.444 192.827 245.5 186.486C236.73 179.485 235.474 178.422 231.586 174.712C229.425 172.65 227.197 170.962 226.635 170.962C226.073 170.962 225.025 170.174 224.307 169.211C223.101 167.597 217.35 162.829 213.753 160.462C211.862 159.217 207.5 155.02 207.5 154.445C207.5 154.21 236.637 153.894 272.25 153.741L337 153.462L339.818 150.599C341.368 149.024 343.055 146.632 343.568 145.284C344.857 141.893 344.802 12.8875 343.51 9.48949C342.966 8.05749 341.325 5.7785 339.864 4.4245C337.618 2.3425 336.221 1.96249 330.823 1.96249C326.069 1.96249 324.29 2.34549 323.862 3.46249C323.545 4.28749 322.77 4.96249 322.14 4.96249C321.509 4.96249 319.744 6.2865 318.217 7.9045C316.689 9.5225 314.666 11.0955 313.72 11.3985C312.774 11.7025 311.115 13.2755 310.033 14.8945C308.952 16.5145 306.965 18.3405 305.619 18.9535C304.273 19.5675 302.008 21.1825 300.586 22.5435C291.987 30.7745 289.481 32.9625 288.656 32.9625C288.148 32.9625 286.156 34.7085 284.228 36.8425C282.3 38.9755 280.257 40.8885 279.687 41.0925C278.343 41.5725 272.432 46.4565 267.438 51.2125C265.272 53.2755 263.083 54.9625 262.573 54.9625C262.062 54.9625 260.825 55.9915 259.823 57.2485C258.82 58.5055 257.062 60.1935 255.917 60.9985C253.825 62.4685 247.142 68.0355 241.19 73.2655C239.435 74.8075 236.074 77.7325 233.72 79.7655C231.365 81.7985 228.66 84.1375 227.708 84.9625C226.755 85.7875 223.761 88.2625 221.054 90.4625C218.347 92.6625 215.141 95.3625 213.928 96.4625C212.716 97.5625 209.823 100.037 207.5 101.962C205.177 103.887 202.283 106.362 201.07 107.462C199.857 108.562 195.745 112.049 191.932 115.211C188.119 118.373 183.271 122.536 181.157 124.461C177.571 127.729 174.105 128.947 173.333 127.212C173.048 126.57 168.489 122.757 161.079 116.964C160.023 116.138 158.171 114.45 156.965 113.212C155.758 111.974 154.424 110.962 154 110.962C153.576 110.962 152.242 109.95 151.035 108.712C149.829 107.474 147.977 105.786 146.921 104.96C142.996 101.891 135.027 95.4135 133.392 93.9625C131.339 92.1405 125.38 87.1615 124 86.1155C123.45 85.6985 119.976 82.7935 116.28 79.6605C112.584 76.5265 109.277 73.9625 108.931 73.9625C108.585 73.9625 107.075 72.7245 105.575 71.2125C101.424 67.0275 95.286 61.9625 94.366 61.9625C93.915 61.9625 92.82 60.8555 91.934 59.5015C91.047 58.1475 89.514 56.7845 88.527 56.4715C87.54 56.1575 85.373 54.6775 83.712 53.1825C80.69 50.4625 74.689 45.3805 69.667 41.2895C68.2 40.0945 65.145 37.5065 62.879 35.5395C60.612 33.5725 58.513 31.9625 58.215 31.9625C57.916 31.9625 55.946 30.3695 53.836 28.4225C51.726 26.4755 48.791 23.7755 47.314 22.4225C45.836 21.0695 44.174 19.9625 43.62 19.9625C43.067 19.9625 42.025 19.1335 41.307 18.1215C40.588 17.1085 39.028 15.7645 37.84 15.1345C36.652 14.5035 34.372 12.7445 32.774 11.2255C22.898 1.83649 19.673 -0.0615042 13.703 0.0014958C11.666 0.0234958 8.537 0.676492 6.75 1.45349ZM31.5 45.5765C32.325 46.2845 34.515 48.2215 36.366 49.8825C38.218 51.5425 40.54 53.1575 41.527 53.4715C42.514 53.7845 44.047 55.1475 44.934 56.5015C45.82 57.8555 47.001 58.9625 47.556 58.9625C48.112 58.9625 50.142 60.5375 52.067 62.4625C53.992 64.3875 55.991 65.9625 56.51 65.9625C57.029 65.9625 58.18 67.0695 59.066 68.4235C59.953 69.7775 61.486 71.1405 62.473 71.4535C63.46 71.7675 65.578 73.2475 67.18 74.7425C68.782 76.2385 72.04 79.0375 74.42 80.9625C80.737 86.0705 83.509 88.3825 88.121 92.3855C90.388 94.3525 92.487 95.9625 92.785 95.9625C93.084 95.9625 95.054 97.5555 97.164 99.5025C99.274 101.449 102.209 104.149 103.686 105.502C105.164 106.855 106.835 107.962 107.401 107.962C107.967 107.962 108.861 108.767 109.387 109.752C109.914 110.736 111.559 112.191 113.042 112.984C114.525 113.778 117.439 116.01 119.517 117.945C126.94 124.854 128.305 125.336 129.068 125.649C129.568 126.149 130.66 126.412 131 126.962C131.409 127.624 114.01 127.962 79.559 127.962H27.5V85.4035C27.5 40.9905 27.393 42.0555 31.5 45.5765ZM318.377 85.9625L318.609 127.962H269.506H220.404L223.803 124.462C225.672 122.537 227.509 120.962 227.884 120.962C228.26 120.962 230.142 119.387 232.067 117.462C233.992 115.537 235.913 113.962 236.337 113.962C236.761 113.962 238.634 112.387 240.5 110.462C242.366 108.537 244.217 106.962 244.615 106.962C245.012 106.962 247.286 105.172 249.668 102.983C252.051 100.795 255.35 97.8605 257 96.4615C258.65 95.0625 262.124 92.0155 264.72 89.6905C267.315 87.3655 272.019 83.4375 275.171 80.9625C278.324 78.4875 282.038 75.2245 283.424 73.7125C284.811 72.2005 286.33 70.9625 286.801 70.9625C287.272 70.9625 289.421 69.2755 291.577 67.2125C293.732 65.1505 296.96 62.2425 298.748 60.7515C300.537 59.2595 303.125 57.0925 304.5 55.9345C305.875 54.7765 308.508 52.6215 310.35 51.1455C312.193 49.6705 314.668 47.4585 315.85 46.2305C317.033 45.0035 318.033 43.9905 318.073 43.9805C318.113 43.9705 318.25 62.8625 318.377 85.9625Z"/>
</mask>
<path fill-rule="evenodd" clip-rule="evenodd" d="M6.75 1.45349C4.963 2.23049 3.5 3.3055 3.5 3.8425C3.5 4.3805 2.713 5.60749 1.75 6.56949C0.117 8.20149 0 12.9135 0 76.8075C0 130.708 0.266 145.384 1.25 145.712C1.938 145.941 2.5 146.688 2.5 147.371C2.5 148.054 3.661 149.704 5.08 151.038L7.66 153.462L76.58 153.732C120.733 153.905 145.5 154.354 145.5 154.982C145.5 155.521 144.986 155.962 144.358 155.962C143.729 155.962 141.817 157.277 140.108 158.885C131.14 167.32 128.109 169.962 127.4 169.962C126.97 169.962 124.61 171.875 122.156 174.212C119.702 176.549 116.039 179.812 114.015 181.462C111.992 183.112 108.538 186.15 106.339 188.212C104.14 190.275 101.99 191.962 101.561 191.962C101.132 191.962 99.255 193.533 97.39 195.452C95.526 197.371 93.704 198.946 93.343 198.952C92.583 198.965 85.796 204.925 80.984 209.805C75.55 215.316 75.349 223.909 80.53 229.271C82.642 231.457 84.466 232.207 88.752 232.65C95.176 233.313 98.806 231.717 104.537 225.712C106.506 223.65 108.543 221.962 109.065 221.962C109.587 221.962 111.459 220.387 113.226 218.462C114.993 216.537 116.814 214.962 117.273 214.962C117.732 214.962 119.634 213.387 121.5 211.462C123.366 209.537 125.272 207.962 125.736 207.962C126.2 207.962 128.361 206.274 130.539 204.212C132.716 202.15 135.961 199.23 137.749 197.723C139.537 196.216 143.218 192.954 145.929 190.473C148.64 187.993 151.158 185.962 151.525 185.962C151.893 185.962 153.768 184.5 155.693 182.712C164.127 174.88 167.525 171.961 168.237 171.93C168.657 171.911 170.563 170.224 172.473 168.18L175.945 164.462L178.11 166.462C179.301 167.562 182.169 170.037 184.483 171.962C186.797 173.887 190.064 176.7 191.743 178.212C193.423 179.724 195.08 180.962 195.425 180.962C195.771 180.962 197.617 182.335 199.527 184.012C201.437 185.69 204.223 188.053 205.717 189.262C210.176 192.872 216.482 198.249 220.317 201.712C222.297 203.5 224.219 204.962 224.588 204.962C224.957 204.962 227.226 206.748 229.629 208.931C237.654 216.219 238.565 216.962 239.479 216.962C239.978 216.962 240.975 217.785 241.693 218.792C242.412 219.798 244.35 221.478 246 222.525C247.65 223.571 249.588 225.223 250.307 226.195C251.025 227.167 252.215 227.962 252.95 227.962C253.685 227.962 254.536 228.613 254.84 229.408C255.54 231.231 261.454 232.381 265.868 231.553C267.721 231.205 270.503 229.833 272.05 228.503C274.427 226.461 274.932 225.143 275.303 220.013C275.677 214.834 275.393 213.426 273.371 210.457C272.067 208.542 270.66 206.973 270.243 206.969C269.827 206.965 268.509 205.837 267.313 204.462C266.118 203.087 264.71 201.962 264.184 201.962C263.659 201.962 262.251 200.95 261.056 199.712C258.827 197.404 253.444 192.827 245.5 186.486C236.73 179.485 235.474 178.422 231.586 174.712C229.425 172.65 227.197 170.962 226.635 170.962C226.073 170.962 225.025 170.174 224.307 169.211C223.101 167.597 217.35 162.829 213.753 160.462C211.862 159.217 207.5 155.02 207.5 154.445C207.5 154.21 236.637 153.894 272.25 153.741L337 153.462L339.818 150.599C341.368 149.024 343.055 146.632 343.568 145.284C344.857 141.893 344.802 12.8875 343.51 9.48949C342.966 8.05749 341.325 5.7785 339.864 4.4245C337.618 2.3425 336.221 1.96249 330.823 1.96249C326.069 1.96249 324.29 2.34549 323.862 3.46249C323.545 4.28749 322.77 4.96249 322.14 4.96249C321.509 4.96249 319.744 6.2865 318.217 7.9045C316.689 9.5225 314.666 11.0955 313.72 11.3985C312.774 11.7025 311.115 13.2755 310.033 14.8945C308.952 16.5145 306.965 18.3405 305.619 18.9535C304.273 19.5675 302.008 21.1825 300.586 22.5435C291.987 30.7745 289.481 32.9625 288.656 32.9625C288.148 32.9625 286.156 34.7085 284.228 36.8425C282.3 38.9755 280.257 40.8885 279.687 41.0925C278.343 41.5725 272.432 46.4565 267.438 51.2125C265.272 53.2755 263.083 54.9625 262.573 54.9625C262.062 54.9625 260.825 55.9915 259.823 57.2485C258.82 58.5055 257.062 60.1935 255.917 60.9985C253.825 62.4685 247.142 68.0355 241.19 73.2655C239.435 74.8075 236.074 77.7325 233.72 79.7655C231.365 81.7985 228.66 84.1375 227.708 84.9625C226.755 85.7875 223.761 88.2625 221.054 90.4625C218.347 92.6625 215.141 95.3625 213.928 96.4625C212.716 97.5625 209.823 100.037 207.5 101.962C205.177 103.887 202.283 106.362 201.07 107.462C199.857 108.562 195.745 112.049 191.932 115.211C188.119 118.373 183.271 122.536 181.157 124.461C177.571 127.729 174.105 128.947 173.333 127.212C173.048 126.57 168.489 122.757 161.079 116.964C160.023 116.138 158.171 114.45 156.965 113.212C155.758 111.974 154.424 110.962 154 110.962C153.576 110.962 152.242 109.95 151.035 108.712C149.829 107.474 147.977 105.786 146.921 104.96C142.996 101.891 135.027 95.4135 133.392 93.9625C131.339 92.1405 125.38 87.1615 124 86.1155C123.45 85.6985 119.976 82.7935 116.28 79.6605C112.584 76.5265 109.277 73.9625 108.931 73.9625C108.585 73.9625 107.075 72.7245 105.575 71.2125C101.424 67.0275 95.286 61.9625 94.366 61.9625C93.915 61.9625 92.82 60.8555 91.934 59.5015C91.047 58.1475 89.514 56.7845 88.527 56.4715C87.54 56.1575 85.373 54.6775 83.712 53.1825C80.69 50.4625 74.689 45.3805 69.667 41.2895C68.2 40.0945 65.145 37.5065 62.879 35.5395C60.612 33.5725 58.513 31.9625 58.215 31.9625C57.916 31.9625 55.946 30.3695 53.836 28.4225C51.726 26.4755 48.791 23.7755 47.314 22.4225C45.836 21.0695 44.174 19.9625 43.62 19.9625C43.067 19.9625 42.025 19.1335 41.307 18.1215C40.588 17.1085 39.028 15.7645 37.84 15.1345C36.652 14.5035 34.372 12.7445 32.774 11.2255C22.898 1.83649 19.673 -0.0615042 13.703 0.0014958C11.666 0.0234958 8.537 0.676492 6.75 1.45349ZM31.5 45.5765C32.325 46.2845 34.515 48.2215 36.366 49.8825C38.218 51.5425 40.54 53.1575 41.527 53.4715C42.514 53.7845 44.047 55.1475 44.934 56.5015C45.82 57.8555 47.001 58.9625 47.556 58.9625C48.112 58.9625 50.142 60.5375 52.067 62.4625C53.992 64.3875 55.991 65.9625 56.51 65.9625C57.029 65.9625 58.18 67.0695 59.066 68.4235C59.953 69.7775 61.486 71.1405 62.473 71.4535C63.46 71.7675 65.578 73.2475 67.18 74.7425C68.782 76.2385 72.04 79.0375 74.42 80.9625C80.737 86.0705 83.509 88.3825 88.121 92.3855C90.388 94.3525 92.487 95.9625 92.785 95.9625C93.084 95.9625 95.054 97.5555 97.164 99.5025C99.274 101.449 102.209 104.149 103.686 105.502C105.164 106.855 106.835 107.962 107.401 107.962C107.967 107.962 108.861 108.767 109.387 109.752C109.914 110.736 111.559 112.191 113.042 112.984C114.525 113.778 117.439 116.01 119.517 117.945C126.94 124.854 128.305 125.336 129.068 125.649C129.568 126.149 130.66 126.412 131 126.962C131.409 127.624 114.01 127.962 79.559 127.962H27.5V85.4035C27.5 40.9905 27.393 42.0555 31.5 45.5765ZM318.377 85.9625L318.609 127.962H269.506H220.404L223.803 124.462C225.672 122.537 227.509 120.962 227.884 120.962C228.26 120.962 230.142 119.387 232.067 117.462C233.992 115.537 235.913 113.962 236.337 113.962C236.761 113.962 238.634 112.387 240.5 110.462C242.366 108.537 244.217 106.962 244.615 106.962C245.012 106.962 247.286 105.172 249.668 102.983C252.051 100.795 255.35 97.8605 257 96.4615C258.65 95.0625 262.124 92.0155 264.72 89.6905C267.315 87.3655 272.019 83.4375 275.171 80.9625C278.324 78.4875 282.038 75.2245 283.424 73.7125C284.811 72.2005 286.33 70.9625 286.801 70.9625C287.272 70.9625 289.421 69.2755 291.577 67.2125C293.732 65.1505 296.96 62.2425 298.748 60.7515C300.537 59.2595 303.125 57.0925 304.5 55.9345C305.875 54.7765 308.508 52.6215 310.35 51.1455C312.193 49.6705 314.668 47.4585 315.85 46.2305C317.033 45.0035 318.033 43.9905 318.073 43.9805C318.113 43.9705 318.25 62.8625 318.377 85.9625Z" fill="white" stroke="white" stroke-width="2" mask="url(#path-1-inside-1_1014_159)"/>
</svg>
